<?xml version="1.0" encoding="UTF-8"?>
<svg xmlns="http://www.w3.org/2000/svg" viewBox="0 0 521 521" width="521" height="521">
<path d="M0.13 0.13C173.71 0.13 347.29 0.13 520.88 0.13C520.88 173.71 520.88 347.29 520.88 520.88C347.29 520.88 173.71 520.88 0.13 520.88C0.13 347.29 0.13 173.71 0.13 0.13ZM407.68 37.25C404.83 36.78 401.35 38.78 398.58 39.79C392.21 42.11 385.83 44.38 379.46 46.72C356.5 55.16 333.41 63.28 310.44 71.7C245.09 95.65 179.66 119.5 114.06 142.78C94.69 149.65 75.4 156.81 56.05 163.77C49.93 165.97 32.33 171.05 28.01 174.25C54.14 197.75 80.27 221.25 106.39 244.75C75.34 321.53 44.3 398.3 13.25 475.08C45.18 439.64 77.11 404.19 109.04 368.75C108.51 365.23 106.35 361.94 105.24 358.55C102.87 351.28 100.96 343.9 99.79 336.35C99.24 332.76 97.46 327.91 99.23 324.45C100.82 321.35 104.72 321.17 107.75 320.99C114.77 320.57 121.73 319.39 128.75 318.96C134.6 318.61 140.41 317.65 146.25 317.16C149.47 316.89 153.67 317.27 156.68 315.93C158.81 314.97 160.75 311.77 162.29 310.04C166.25 305.56 171.96 301 174.8 295.75C173.2 294.18 169.97 293.7 167.84 292.87C163.13 291.03 158.45 289 153.91 286.79C139.69 279.89 127.69 268.86 119.25 255.52C113.42 246.3 110.08 235.56 108.84 224.76C107.78 215.4 108.38 206.05 110.71 196.95C112.5 189.98 115.18 183.71 118.67 177.42C141.68 136 195.85 130.44 238.25 135.13C252.07 136.65 266.76 140.59 278.99 147.28C283.21 149.58 287.24 152.28 291.05 155.21C292.93 156.66 295.03 159.27 297.25 159.85C334.06 118.98 370.87 78.12 407.68 37.25ZM310.75 215.36C310.03 207.87 308.16 200.38 305.34 193.4C289.15 153.15 246.16 145.04 207.25 145.95C167.98 146.87 129.99 162.36 121.19 204.36C119.79 211.05 120.2 218.03 120.93 224.75C121.97 234.18 125.52 243.15 130.71 251.02C151.27 282.21 191.71 287.69 224.93 296.77C246.53 302.67 275.55 308.24 276.1 336.25C276.95 379.12 217.84 387.28 187.39 374.81C173.24 369.01 162.65 356.7 157.16 342.64C155.42 338.18 154.49 333.45 152.75 329.01C139.08 330.34 125.42 331.68 111.75 333.02C110.82 338.74 114.14 346.4 115.82 351.87C122.07 372.23 134.71 389.22 153.03 400.25C166.17 408.16 181.44 411.55 196.53 413.25C237.47 417.85 290.09 411.43 310.72 370.5C314.96 362.09 317.15 353.53 318.59 344.25C319.81 336.33 319.02 327.19 317.3 319.4C315.51 311.29 313.38 303.47 308.91 296.33C290.34 266.66 251.79 258.61 220.15 251.18C205.2 247.67 189.55 243.79 176.09 236.19C169.16 232.28 162.55 225.34 161.14 217.23C156.81 192.38 181.72 181.4 202.25 179.63C220.61 178.05 245.85 179.31 257.58 196.16C262.33 202.97 264.71 210.03 267.25 217.82C272.44 218.39 277.89 217.56 283.1 217.26C288.48 216.95 293.88 217.04 299.26 216.69C302.51 216.49 308.09 217.12 310.75 215.36ZM374.75 153.16C371.8 151.59 366.61 152.54 363.25 152.54C356.11 152.54 337.85 151.26 332.02 152.92C332.02 238.5 332.02 324.07 332.02 409.65C391.68 409.65 451.33 409.65 510.99 409.65C510.99 398.48 510.99 387.3 510.99 376.12C500.13 374.99 488.68 375.94 477.75 375.94C456.42 375.94 435.08 375.94 413.75 375.94C405.25 375.94 396.75 375.94 388.25 375.94C384.9 375.94 380.39 376.78 377.48 374.76C373.33 371.89 374.88 364.59 374.88 360.25C374.88 346.75 374.88 333.25 374.88 319.75C374.88 282.75 374.88 245.75 374.88 208.75C374.88 196.42 374.88 184.08 374.88 171.75C374.88 165.65 375.46 159.21 374.75 153.16ZM251.82 210.25C250.4 203.14 242.29 197.07 235.9 194.79C222.19 189.92 205.17 189.4 191.22 193.9C182.64 196.67 172.62 201.27 172.71 211.73C172.84 227.67 198.28 232.57 210.12 236.2C212.99 237.08 222.57 240.52 225.14 239.82C227.51 239.18 230.55 234.24 232.18 232.41C237.23 226.78 248.49 216.16 251.82 210.25Z" fill="#ffffff" fill-rule="evenodd" stroke="#ffffff" stroke-width="0.25" stroke-linejoin="round"/>
<path d="M407.68 37.25C370.87 78.12 334.06 118.98 297.25 159.85C295.03 159.27 292.93 156.66 291.05 155.21C287.24 152.28 283.21 149.58 278.99 147.28C266.76 140.59 252.07 136.65 238.25 135.13C195.85 130.44 141.68 136 118.67 177.42C115.18 183.71 112.5 189.98 110.71 196.95C108.38 206.05 107.78 215.4 108.84 224.76C110.08 235.56 113.42 246.3 119.25 255.52C127.69 268.86 139.69 279.89 153.91 286.79C158.45 289 163.13 291.03 167.84 292.87C169.97 293.7 173.2 294.18 174.8 295.75C171.96 301 166.25 305.56 162.29 310.04C160.75 311.77 158.81 314.97 156.68 315.93C153.67 317.27 149.47 316.89 146.25 317.16C140.41 317.65 134.6 318.61 128.75 318.96C121.73 319.39 114.77 320.57 107.75 320.99C104.72 321.17 100.82 321.35 99.23 324.45C97.46 327.91 99.24 332.76 99.79 336.35C100.96 343.9 102.87 351.28 105.24 358.55C106.35 361.94 108.51 365.23 109.04 368.75C77.11 404.19 45.18 439.64 13.25 475.08C44.3 398.3 75.34 321.53 106.39 244.75C80.27 221.25 54.14 197.75 28.01 174.25C32.33 171.05 49.93 165.97 56.05 163.77C75.4 156.81 94.69 149.65 114.06 142.78C179.66 119.5 245.09 95.65 310.44 71.7C333.41 63.28 356.5 55.16 379.46 46.72C385.83 44.38 392.21 42.11 398.58 39.79C401.35 38.78 404.83 36.78 407.68 37.25ZM374.75 153.16C375.46 159.21 374.88 165.65 374.88 171.75C374.88 184.08 374.88 196.42 374.88 208.75C374.88 245.75 374.88 282.75 374.88 319.75C374.88 333.25 374.88 346.75 374.88 360.25C374.88 364.59 373.33 371.89 377.48 374.76C380.39 376.78 384.9 375.94 388.25 375.94C396.75 375.94 405.25 375.94 413.75 375.94C435.08 375.94 456.42 375.94 477.75 375.94C488.68 375.94 500.13 374.99 510.99 376.12C510.99 387.3 510.99 398.48 510.99 409.65C451.33 409.65 391.68 409.65 332.02 409.65C332.02 324.07 332.02 238.5 332.02 152.92C337.85 151.26 356.11 152.54 363.25 152.54C366.61 152.54 371.8 151.59 374.75 153.16ZM251.82 210.25C248.49 216.16 237.23 226.78 232.18 232.41C230.55 234.24 227.51 239.18 225.14 239.82C222.57 240.52 212.99 237.08 210.12 236.2C198.28 232.57 172.84 227.67 172.71 211.73C172.62 201.27 182.64 196.67 191.22 193.9C205.17 189.4 222.19 189.92 235.9 194.79C242.29 197.07 250.4 203.14 251.82 210.25Z" fill="#2bd39f" fill-rule="evenodd" stroke="#2bd39f" stroke-width="0.25" stroke-linejoin="round"/>
<path d="M310.75 215.36C308.09 217.12 302.51 216.49 299.26 216.69C293.88 217.04 288.48 216.95 283.1 217.26C277.89 217.56 272.44 218.39 267.25 217.82C264.71 210.03 262.33 202.97 257.58 196.16C245.85 179.31 220.61 178.05 202.25 179.63C181.72 181.4 156.81 192.38 161.14 217.23C162.55 225.34 169.16 232.28 176.09 236.19C189.55 243.79 205.2 247.67 220.15 251.18C251.79 258.61 290.34 266.66 308.91 296.33C313.38 303.47 315.51 311.29 317.3 319.4C319.02 327.19 319.81 336.33 318.59 344.25C317.15 353.53 314.96 362.09 310.72 370.5C290.09 411.43 237.47 417.85 196.53 413.25C181.44 411.55 166.17 408.16 153.03 400.25C134.71 389.22 122.07 372.23 115.82 351.87C114.14 346.4 110.82 338.74 111.75 333.02C125.42 331.68 139.08 330.34 152.75 329.01C154.49 333.45 155.42 338.18 157.16 342.64C162.65 356.7 173.24 369.01 187.39 374.81C217.84 387.28 276.95 379.12 276.1 336.25C275.55 308.24 246.53 302.67 224.93 296.77C191.71 287.69 151.27 282.21 130.71 251.02C125.52 243.15 121.97 234.18 120.93 224.75C120.2 218.03 119.79 211.05 121.19 204.36C129.99 162.36 167.98 146.87 207.25 145.95C246.16 145.04 289.15 153.15 305.34 193.4C308.16 200.38 310.03 207.87 310.75 215.36Z" fill="#0b3041" fill-rule="evenodd" stroke="#0b3041" stroke-width="0.25" stroke-linejoin="round"/>
</svg>